<?xml version="1.0" encoding="UTF-8" standalone="no"?>
<svg
   xmlns:dc="http://purl.org/dc/elements/1.1/"
   xmlns:cc="http://creativecommons.org/ns#"
   xmlns:rdf="http://www.w3.org/1999/02/22-rdf-syntax-ns#"
   xmlns:svg="http://www.w3.org/2000/svg"
   xmlns="http://www.w3.org/2000/svg"
   version="1.1"
   viewBox="0 0 1085.63 161.16"
   data-name="Layer 1"
   id="Layer_1">
  <metadata
     id="metadata31">
    <rdf:RDF>
      <cc:Work
         rdf:about="">
        <dc:format>image/svg+xml</dc:format>
        <dc:type
           rdf:resource="http://purl.org/dc/dcmitype/StillImage" />
        <dc:title></dc:title>
      </cc:Work>
    </rdf:RDF>
  </metadata>
  <defs
     id="defs3">
    <style
       id="style5">
      .cls-1 {
        fill: #b2acff;
      }

      .cls-2 {
        fill: none;
        stroke: #333;
        stroke-linecap: square;
        stroke-linejoin: round;
        stroke-width: 4px;
      }

      .cls-3 {
        font-size: 205px;
        fill: #333;
        font-family: HelveticaNeue-UltraLight, Helvetica Neue;
        font-weight: 100;
      }
    </style>
  </defs>
  <path
     style="fill:#b2acff"
     d="m 174.88,153.06 0,-144 90,0 -54,144 -36,0 z"
     id="polygon9" />
  <path
     style="fill:none;stroke:#333333;stroke-width:4px;stroke-linecap:square;stroke-linejoin:round"
     d="m 174.88,153.06 0,-144 90,0 -54,144 -36,0 z"
     id="polygon11" />
  <path
     style="fill:#b2acff"
     d="m 57.88,81.06 36,-72 54,0 0,144 -54,0 -36,-72 z"
     id="polygon13" />
  <path
     style="fill:none;stroke:#333333;stroke-width:4px;stroke-linecap:square;stroke-linejoin:round"
     d="m 57.88,81.06 36,-72 54,0 0,144 -54,0 -36,-72 z"
     id="polygon15" />
  <g
     transform="translate(303.79,153.06)"
     style="font-weight:100;font-size:205px;font-family:HelveticaNeue-UltraLight, 'Helvetica Neue';fill:#333333"
     id="text17">
    <path
       d="m 15.17,0 0,-66.625 53.095,0 q 10.25,0 18.655,-2.46 8.61,-2.665 14.76,-7.585 6.15,-5.125 9.635,-12.505 3.485,-7.585 3.485,-17.22 0,-19.885 -11.685,-29.93 -11.685,-10.045 -32.8,-10.045 l -59.245,0 0,146.37 4.1,0 z m 0,-70.725 0,-71.545 55.145,0 q 20.5,0 30.34,9.225 10.045,9.225 10.045,26.65 0,8.61 -3.075,15.17 -3.075,6.56 -8.61,11.275 -5.33,4.51 -12.71,6.97 -7.38,2.255 -15.99,2.255 l -55.145,0 z"
       style="font-weight:100;font-size:205px;font-family:HelveticaNeue-UltraLight, 'Helvetica Neue';fill:#333333"
       id="path4221" />
  </g>
  <g
     transform="translate(428.34,153.06)"
     style="font-weight:100;font-size:205px;font-family:HelveticaNeue-UltraLight, 'Helvetica Neue';fill:#333333"
     id="text19">
    <path
       d="M 15.17,-51.865 48.79,-81.59 121.36,0 l 5.535,0 -74.825,-84.05 70.725,-62.32 -6.15,0 -101.475,88.97 0,-88.97 -4.1,0 0,146.37 4.1,0 0,-51.865 z"
       style="font-weight:100;font-size:205px;font-family:HelveticaNeue-UltraLight, 'Helvetica Neue';fill:#333333"
       id="path4224" />
  </g>
  <g
     transform="translate(563.88,153.06)"
     style="font-weight:100;font-size:205px;font-family:HelveticaNeue-UltraLight, 'Helvetica Neue';fill:#333333"
     id="text21">
    <path
       d="m -3.28,-142.27 52.48,0 0,142.27 4.1,0 0,-142.27 52.685,0 0,-4.1 -109.265,0 0,4.1 z"
       style="font-weight:100;font-size:205px;font-family:HelveticaNeue-UltraLight, 'Helvetica Neue';fill:#333333"
       id="path4227" />
  </g>
  <g
     transform="translate(673.82,153.06)"
     style="font-weight:100;font-size:205px;font-family:HelveticaNeue-UltraLight, 'Helvetica Neue';fill:#333333"
     id="text23">
    <path
       d="m 100.655,-4.1 -85.485,0 0,-142.27 -4.1,0 0,146.37 89.585,0 0,-4.1 z"
       style="font-weight:100;font-size:205px;font-family:HelveticaNeue-UltraLight, 'Helvetica Neue';fill:#333333"
       id="path4230" />
  </g>
  <g
     transform="translate(780.69,153.06)"
     style="font-weight:100;font-size:205px;font-family:HelveticaNeue-UltraLight, 'Helvetica Neue';fill:#333333"
     id="text25">
    <path
       d="m 21.73,-48.175 74.62,0 19.27,48.175 4.51,0 -57.81,-146.37 -5.33,0 L -2.255,0 2.255,0 21.73,-48.175 Z m 72.98,-4.1 -71.34,0 36.08,-89.995 0.41,0 34.85,89.995 z"
       style="font-weight:100;font-size:205px;font-family:HelveticaNeue-UltraLight, 'Helvetica Neue';fill:#333333"
       id="path4233" />
  </g>
  <g
     transform="translate(913.25,153.06)"
     style="font-weight:100;font-size:205px;font-family:HelveticaNeue-UltraLight, 'Helvetica Neue';fill:#333333"
     id="text27">
    <path
       d="m 13.735,-78.31 0,-63.96 58.835,0 q 7.79,0 14.555,2.05 6.765,1.845 11.685,5.945 5.125,3.895 7.995,10.045 2.87,5.945 2.87,14.35 0,7.79 -3.075,13.735 -3.075,5.945 -8.2,10.045 -5.125,3.895 -11.89,5.945 -6.56,1.845 -13.94,1.845 l -58.835,0 z m -4.1,-68.06 0,146.37 60.475,0 q 10.455,0 19.27,-2.46 9.02,-2.665 15.375,-7.585 6.355,-4.92 9.84,-12.3 3.69,-7.585 3.69,-17.425 0,-8.405 -2.87,-14.965 -2.87,-6.765 -7.79,-11.275 -4.715,-4.715 -11.275,-7.175 -6.355,-2.665 -13.53,-2.87 l 0,-0.41 q 6.765,-0.41 12.3,-3.075 5.74,-2.87 9.84,-7.38 4.1,-4.51 6.355,-10.455 2.46,-5.945 2.46,-12.505 0,-9.225 -3.28,-15.99 -3.075,-6.765 -8.815,-11.275 -5.535,-4.715 -13.12,-6.97 -7.38,-2.255 -15.99,-2.255 l -62.935,0 z m 4.1,142.27 0,-70.11 58.835,0 q 7.79,0 15.17,1.845 7.585,1.845 13.325,5.945 5.945,4.1 9.43,10.66 3.69,6.56 3.69,16.195 0,9.02 -3.28,15.785 -3.28,6.56 -9.02,11.07 -5.535,4.305 -13.325,6.56 -7.585,2.05 -16.605,2.05 l -58.22,0 z"
       style="font-weight:100;font-size:205px;font-family:HelveticaNeue-UltraLight, 'Helvetica Neue';fill:#333333"
       id="path4236" />
  </g>
</svg>
